<svg width="96" height="182" viewBox="0 0 96 182" fill="none" xmlns="http://www.w3.org/2000/svg">
<path d="M43.69 78.52H51.85V109.936H52.258C55.658 103.408 61.064 100.144 68.476 100.144C74.936 100.144 79.968 102.558 83.572 107.386C87.244 112.214 89.08 118.98 89.08 127.684C89.08 136.388 87.244 143.154 83.572 147.982C79.968 152.81 74.936 155.224 68.476 155.224C61.064 155.224 55.658 151.96 52.258 145.432H51.85V154H43.69V78.52ZM65.314 147.982C70.074 147.982 73.746 146.554 76.33 143.698C78.982 140.774 80.308 136.932 80.308 132.172V123.196C80.308 118.436 78.982 114.628 76.33 111.772C73.746 108.848 70.074 107.386 65.314 107.386C63.478 107.386 61.744 107.624 60.112 108.1C58.48 108.576 57.052 109.29 55.828 110.242C54.604 111.126 53.618 112.248 52.87 113.608C52.19 114.9 51.85 116.43 51.85 118.198V137.17C51.85 138.938 52.19 140.502 52.87 141.862C53.618 143.154 54.604 144.276 55.828 145.228C57.052 146.112 58.48 146.792 60.112 147.268C61.744 147.744 63.478 147.982 65.314 147.982Z" fill="white"/>
<path d="M9.996 105V52.368H18.156V60.936H18.564C19.108 59.644 19.788 58.42 20.604 57.264C21.42 56.04 22.406 54.986 23.562 54.102C24.786 53.218 26.214 52.504 27.846 51.96C29.478 51.416 31.382 51.144 33.558 51.144C39.066 51.144 43.486 52.912 46.818 56.448C50.15 59.916 51.816 64.846 51.816 71.238V105H43.656V72.666C43.656 67.838 42.602 64.268 40.494 61.956C38.386 59.576 35.292 58.386 31.212 58.386C29.58 58.386 27.982 58.59 26.418 58.998C24.854 59.406 23.46 60.018 22.236 60.834C21.012 61.65 20.026 62.704 19.278 63.996C18.53 65.288 18.156 66.784 18.156 68.484V105H9.996Z" fill="white"/>
</svg>
